<?xml version="1.0" standalone="no"?>
<!DOCTYPE svg PUBLIC "-//W3C//DTD SVG 20010904//EN"
 "http://www.w3.org/TR/2001/REC-SVG-20010904/DTD/svg10.dtd">
<svg version="1.0" xmlns="http://www.w3.org/2000/svg"
 width="761.000000pt" height="759.000000pt" viewBox="0 0 761.000000 759.000000"
 preserveAspectRatio="xMidYMid meet">

<g transform="translate(0.000000,759.000000) scale(0.100000,-0.100000)"
fill="#000000" stroke="none">
<path d="M3695 6707 c-55 -35 -124 -78 -152 -97 l-53 -35 0 -1037 0 -1038 -95
0 -95 0 0 -85 0 -85 215 0 215 0 0 -356 0 -356 -72 68 c-40 38 -102 100 -138
139 -275 297 -466 698 -535 1125 -27 167 -27 165 68 240 45 36 118 109 162
163 l80 96 48 1 47 0 0 85 0 85 -93 0 -92 0 -45 -67 c-60 -89 -208 -237 -296
-297 l-72 -48 5 -62 c17 -229 73 -498 142 -683 126 -341 356 -681 619 -916 93
-84 239 -197 252 -197 6 0 41 23 78 52 397 308 664 677 816 1130 66 195 94
344 120 629 l5 46 -72 49 c-91 61 -239 210 -296 297 l-43 67 -334 0 -334 0 0
-85 0 -85 288 0 287 -1 80 -96 c44 -54 117 -127 162 -163 95 -75 95 -73 68
-240 -69 -427 -260 -828 -535 -1125 -36 -39 -98 -101 -137 -139 l-73 -68 0
356 0 356 215 0 215 0 0 85 0 85 -95 0 -95 0 0 430 0 430 -85 0 -85 0 0 -430
0 -430 -150 0 -150 0 0 994 0 994 75 47 75 46 75 -46 75 -47 0 -169 0 -169 85
0 85 0 0 213 0 212 -53 35 c-136 89 -253 160 -267 160 -8 0 -60 -28 -115 -63z"/>
<path d="M2890 5978 c-62 -205 -233 -379 -436 -445 l-81 -26 -7 -136 c-9 -176
7 -411 41 -586 50 -269 124 -489 243 -731 247 -501 577 -857 1083 -1168 l77
-48 78 48 c402 247 666 497 910 863 101 152 247 444 302 606 115 336 170 700
154 1016 l-7 136 -81 26 c-203 66 -374 240 -436 445 l-22 72 -479 0 -479 0 0
-85 0 -85 418 0 417 -1 37 -77 c75 -160 216 -300 384 -384 l87 -43 -7 -175
c-8 -202 -23 -326 -61 -495 -83 -370 -232 -692 -462 -999 -105 -140 -302 -344
-433 -449 -95 -76 -303 -217 -320 -217 -17 0 -225 141 -320 217 -131 105 -328
309 -433 449 -230 307 -379 629 -462 999 -38 169 -53 293 -61 496 l-7 175 84
40 c165 80 311 226 387 386 l37 77 178 1 177 0 0 85 0 85 -239 0 -239 0 -22
-72z"/>
<path d="M1860 1866 l0 -456 115 0 115 0 0 155 0 155 45 0 c52 0 49 4 156
-192 l64 -118 128 0 c70 0 126 3 124 8 -239 395 -217 343 -168 398 49 55 71
118 71 199 0 130 -68 231 -185 275 -53 20 -84 23 -262 28 l-203 5 0 -457z
m393 215 c30 -27 38 -62 25 -107 -13 -49 -41 -64 -120 -64 l-68 0 0 101 0 101
70 -4 c55 -3 74 -8 93 -27z"/>
<path d="M2700 1865 l0 -455 270 0 270 0 0 100 0 99 -157 3 -158 3 0 80 0 80
143 3 142 3 0 94 0 94 -142 3 -143 3 -3 68 -3 67 161 0 160 0 0 105 0 105
-270 0 -270 0 0 -455z"/>
<path d="M3400 1865 l0 -455 115 0 115 0 2 256 3 256 142 -254 141 -253 116
-3 116 -3 0 456 0 455 -110 0 -110 0 0 -255 c0 -140 -3 -255 -7 -255 -5 1 -71
114 -148 253 l-140 252 -118 3 -117 3 0 -456z"/>
<path d="M4383 1865 l-140 -456 115 3 116 3 24 83 25 82 157 0 157 0 24 -82
24 -83 113 -3 c61 -1 112 1 112 5 0 4 -62 209 -137 456 l-137 447 -157 0 -156
0 -140 -455z m350 68 l45 -153 -98 0 -98 0 45 153 c46 155 55 179 59 162 2 -6
23 -79 47 -162z"/>
<path d="M5120 2215 l0 -105 105 0 105 0 0 -350 0 -350 115 0 115 0 0 350 0
350 100 0 100 0 0 105 0 105 -320 0 -320 0 0 -105z"/>
</g>
</svg>
